<svg viewBox="0 0 27.1667 24.7292" x="0" y="0" fill="none" xmlns="http://www.w3.org/2000/svg"><g id="bank" xmlns="http://www.w3.org/2000/svg">
<path id="Vector_3" d="M14.014,0.82l10.5,4.2c0.409,0.1633 0.735,0.6533 0.735,1.085v3.8733c0,0.6417 -0.525,1.1667 -1.166,1.1667h-21c-0.642,0 -1.167,-0.525 -1.167,-1.1667v-3.8733c0,-0.4317 0.327,-0.9217 0.735,-1.085l10.5,-4.2c0.233,-0.0933 0.63,-0.0933 0.863,0z" stroke="#1E1E1C" stroke-width="1.5" stroke-miterlimit="10" stroke-linecap="round" stroke-linejoin="round"/>
<path id="Vector_4" d="M25.249,23.9792h-23.333v-3.5c0,-0.6417 0.525,-1.1667 1.167,-1.1667h21c0.641,0 1.166,0.525 1.166,1.1667z" stroke="#1E1E1C" stroke-width="1.5" stroke-miterlimit="10" stroke-linecap="round" stroke-linejoin="round"/>
<path id="Vector_5" d="M4.25,19.3151v-8.1667" stroke="#1E1E1C" stroke-width="1.5" stroke-miterlimit="10" stroke-linecap="round" stroke-linejoin="round"/>
<path id="Vector_6" d="M8.916,19.3151v-8.1667" stroke="#1E1E1C" stroke-width="1.5" stroke-miterlimit="10" stroke-linecap="round" stroke-linejoin="round"/>
<path id="Vector_7" d="M13.583,19.3151v-8.1667" stroke="#1E1E1C" stroke-width="1.5" stroke-miterlimit="10" stroke-linecap="round" stroke-linejoin="round"/>
<path id="Vector_8" d="M18.25,19.3151v-8.1667" stroke="#1E1E1C" stroke-width="1.5" stroke-miterlimit="10" stroke-linecap="round" stroke-linejoin="round"/>
<path id="Vector_9" d="M22.916,19.3151v-8.1667" stroke="#1E1E1C" stroke-width="1.5" stroke-miterlimit="10" stroke-linecap="round" stroke-linejoin="round"/>
<path id="Vector_10" d="M0.75,23.9766h25.667" stroke="#1E1E1C" stroke-width="1.5" stroke-miterlimit="10" stroke-linecap="round" stroke-linejoin="round"/>
<path id="Vector_11" d="M13.583,8.2266c0.966,0 1.75,-0.7835 1.75,-1.75c0,-0.9665 -0.784,-1.75 -1.75,-1.75c-0.966,0 -1.75,0.7835 -1.75,1.75c0,0.9665 0.784,1.75 1.75,1.75z" stroke="#1E1E1C" stroke-width="1.5" stroke-miterlimit="10" stroke-linecap="round" stroke-linejoin="round"/>
</g></svg>