<svg viewBox="0 0 16 17.9209" x="0" y="0" fill="none" xmlns="http://www.w3.org/2000/svg"><path id="SAR" d="M16,14.6089c-0.1057,0.856 -0.1529,1.226 -0.5479,2.06l-6.0625,1.252c0.1394,-0.901 0.325,-1.596 0.627,-2.013zM7.5537,8.7129l1.8125,-0.394v-5.725c0.675,-0.758 1.0897,-1.098 1.9043,-1.529v6.84l4.7295,-1.026c-0.1057,0.855 -0.1529,1.226 -0.5479,2.06l-4.1816,0.883v1.923l4.7295,-1.001c-0.1057,0.855 -0.1529,1.226 -0.5479,2.06l-4.1816,0.863v0.019l-1.9043,0.393v-3.854l-1.8125,0.382v2.43l-0.0322,0.006c-0.4167,0.731 -1.0035,1.609 -1.5703,2.31l-5.9512,1.132c0.0534,-0.765 0.1647,-1.196 0.5107,-1.967l5.1387,-1.116v-2.392l-4.7627,1.008c0.0534,-0.766 0.1655,-1.197 0.5117,-1.968l4.251,-0.924v-7.598c0.675,-0.757 1.0896,-1.098 1.9043,-1.528z" fill="currentColor" xmlns="http://www.w3.org/2000/svg"/></svg>