<svg width="85" height="141" viewBox="0 0 85 141" fill="none" xmlns="http://www.w3.org/2000/svg">
<path id="Vector" d="M42.4813 64.6066C39.0272 66.7831 35.1073 67.4882 30.7452 67.1408C27.078 66.8486 26.967 66.4046 27.5922 71.4819C28.5529 79.2819 29.9917 86.583 33.8457 93.9874C36.5785 99.2376 39.9977 103.76 44.8823 106.272C50.1888 109.001 61.685 110.371 65.8626 107.62C61.5909 103.723 57.9758 97.7449 54.6196 92.8385C52.0587 89.0947 45.4486 78.6997 53.5969 81.1882C59.079 82.8625 65.0381 92.3979 69.3858 96.9666C71.6523 99.3481 73.935 101.756 76.3996 103.798C78.8112 105.796 81.787 106.968 83.3028 110.173C85.8618 115.585 80.985 121.683 79.557 125.675C78.0837 129.794 76.327 141.181 71.1443 140.885C58.9403 140.19 71.3624 118.371 70.0966 117.097C68.5356 115.525 60.2856 120.123 58.2361 120.469C52.6387 121.416 46.2378 120.376 40.2859 116.892C28.7371 110.132 21.4467 95.0845 18.3812 81.9204C17.5357 78.2888 16.9875 74.6447 16.6059 71.0527C16.2996 68.1696 16.7853 64.098 15.7983 61.2395C14.9035 58.6478 12.6182 56.7343 10.9783 54.6313C8.35257 51.2641 6.637 48.0118 5.12587 44.0076C0.228034 31.0282 -0.747976 16.1004 4.09203 5.82784C5.14289 3.5974 6.99545 0.418112 9.71333 0.655552C11.1577 0.781824 14.5652 2.72843 13.9281 4.83164C13.7526 5.41132 10.8587 5.34754 10.2157 5.94478C8.53691 7.50426 8.06175 11.5834 7.7725 14.151C6.80811 22.716 7.66998 42.1358 16.1743 49.3755C15.3634 48.6852 18.9935 35.4488 19.4027 34.0176C20.6932 29.5035 22.2478 24.9382 24.5292 21.1925C28.8743 14.059 36.6149 6.95928 45.9924 10.4219C68.811 18.8479 53.8468 59.8948 42.4813 64.6066C44.6913 63.6905 38.8844 66.8732 42.4813 64.6066ZM47.7376 22.2327C44.4417 13.1313 33.2708 29.4853 32.2583 31.6746C30.7492 34.9381 24.0858 52.0868 27.4933 56.7903C29.0734 58.9716 36.3377 56.0024 37.797 55.1438C40.6159 53.4854 43.0213 50.2756 44.7631 47.2692C47.0275 43.3608 52.7703 27.8814 47.7376 22.2327C49.035 23.6888 47.1265 20.545 47.7376 22.2327Z" fill="#222221"/>
</svg>
