<svg width="77" height="38" viewBox="0 0 77 38" fill="none" xmlns="http://www.w3.org/2000/svg">
<g id="green bubbles">
<circle id="Ellipse 21" cx="40.5981" cy="5.25434" r="5.25434" fill="#004440"/>
<circle id="Ellipse 23" cx="74.2267" cy="26.9728" r="2.10174" fill="#004440"/>
<path id="Union" d="M73.8595 6.22989C75.5854 10.4823 73.5372 15.3288 69.2848 17.0547C68.8157 17.245 68.3394 17.3895 67.8608 17.4901C65.1978 18.0502 62.2238 18.8118 60.7989 21.1302C59.1352 23.837 60.0444 27.3521 62.501 29.3669C67.3992 33.3843 71.3627 38.6792 73.8251 45.0029C81.4691 64.6339 71.7517 86.7447 52.1207 94.3887C32.4897 102.033 10.3789 92.3153 2.73486 72.6843C-4.90915 53.0533 4.80823 30.9425 24.4392 23.2985C33.0137 19.9598 42.0612 19.9332 50.1697 22.5981C53.1066 23.5634 56.455 22.6488 58.0738 20.015L58.6758 19.0356C59.8694 17.0935 59.3173 14.5922 58.46 12.4799C56.7341 8.22747 58.7823 3.38106 63.0347 1.65516C67.2872 -0.0707362 72.1336 1.97744 73.8595 6.22989Z" fill="#004440"/>
</g>
</svg>
