<svg width="28" height="22" viewBox="0 0 28 22" fill="none" xmlns="http://www.w3.org/2000/svg">
<g id="Saudi Arabia (SA)" clip-path="url(#clip0_2078_61942)">
<g id="Clip path group">
<mask id="mask0_2078_61942" style="mask-type:luminance" maskUnits="userSpaceOnUse" x="0" y="0" width="28" height="22">
<g id="a">
<path id="Vector" d="M0.00195312 0.5H27.9992V21.5H0.00195312V0.5Z" fill="white"/>
</g>
</mask>
<g mask="url(#mask0_2078_61942)">
<g id="Group">
<path id="Vector_2" fill-rule="evenodd" clip-rule="evenodd" d="M-1.75 0.5H29.75V21.5H-1.75V0.5Z" fill="#165D31"/>
<path id="Vector_3" fill-rule="evenodd" clip-rule="evenodd" d="M6.18681 6.45139C6.154 6.94358 6.10478 7.80491 6.52724 7.89514C7.03173 7.94436 6.75282 7.04201 6.93739 6.87795C6.97021 6.79592 7.03173 6.79592 7.03583 6.89846V7.66545C7.03583 7.91155 7.19989 7.98537 7.32294 8.03459C7.45419 8.02639 7.54442 8.03459 7.59364 8.15764L7.65927 9.48244C7.65927 9.48244 7.96278 9.57268 7.97919 8.74006C7.99149 8.24787 7.88075 7.84182 7.94638 7.74748C7.94638 7.65315 8.06942 7.64905 8.15146 7.69416C8.28271 7.7844 8.34013 7.89924 8.54521 7.85823C8.85692 7.76799 9.0456 7.61623 9.0497 7.37834C9.04354 7.14456 8.9949 6.91385 8.90614 6.69748C8.92255 6.65647 8.84872 6.54573 8.86513 6.50471C8.91845 6.59494 9.00458 6.58674 9.02099 6.50471C8.96767 6.33244 8.88564 6.16428 8.75439 6.09455C8.64364 5.99612 8.47958 6.01252 8.42626 6.2176C8.39345 6.45139 8.50829 6.72619 8.67646 6.95588C8.71337 7.04201 8.76259 7.18967 8.74208 7.32092C8.65185 7.37424 8.56161 7.34963 8.48368 7.2717C8.48368 7.2717 8.23759 7.08713 8.23759 7.04201C8.30321 6.62366 8.24989 6.57444 8.21298 6.45549C8.18837 6.29553 8.11044 6.24221 8.04892 6.13557C7.98739 6.06994 7.90536 6.06994 7.86435 6.13557C7.7536 6.32424 7.80692 6.7303 7.88485 6.91487C7.94228 7.08303 8.02841 7.18967 7.98739 7.18967C7.95458 7.28401 7.88485 7.2594 7.83153 7.14866C7.77151 6.9156 7.74255 6.67563 7.7454 6.43498C7.72489 6.24631 7.70028 5.84436 7.57314 5.73772C7.49931 5.63928 7.38857 5.6885 7.34755 5.77873C7.33672 5.96197 7.34083 6.14578 7.35985 6.32834C7.44189 6.63186 7.4706 6.90256 7.51161 7.21018C7.52392 7.62444 7.27372 7.39065 7.28603 7.18147C7.33983 6.91849 7.33563 6.64695 7.27372 6.38576C7.23271 6.27912 7.18759 6.25451 7.08505 6.27092C7.00712 6.27092 6.80614 6.4883 6.74872 6.85744C6.74872 6.85744 6.6995 7.04612 6.679 7.21428C6.65028 7.40295 6.52724 7.54241 6.437 7.18967C6.36317 6.93127 6.31396 6.30373 6.19091 6.45139H6.18681Z" fill="white"/>
<path id="Vector_4" fill-rule="evenodd" clip-rule="evenodd" d="M7.56055 8.46504L6.24805 9.09668C6.26035 8.79727 6.86738 8.25996 7.28574 8.25586C7.55234 8.25996 7.48672 8.3584 7.55645 8.46504H7.56055Z" fill="white"/>
<path id="Vector_5" fill-rule="evenodd" clip-rule="evenodd" d="M7.32687 8.87522C6.6378 10.6594 8.94698 10.9096 9.20538 8.94904C9.22999 8.86701 9.32843 8.78908 9.34484 8.92033C9.29151 10.6963 7.55655 10.8153 7.26124 10.2574C7.19177 10.0655 7.15705 9.86273 7.1587 9.65861C7.11769 9.30998 6.93312 9.44533 6.90441 9.78986C6.87569 9.98264 6.8839 10.036 6.8839 10.2205C6.97413 11.6233 9.20948 11.0203 9.57452 9.86369C9.7673 9.22385 9.54171 8.75217 9.64425 8.75217C9.86573 8.99006 10.1775 8.78498 10.2472 8.70295C10.2759 8.66193 10.3497 8.63322 10.3989 8.68654C10.5712 8.80959 10.8747 8.75217 10.9403 8.53479C10.9773 8.3174 11.006 8.09592 11.0142 7.87033C10.8706 7.91135 10.7681 7.94006 10.7558 8.00158L10.7271 8.19025C10.7148 8.25178 10.5958 8.25178 10.5876 8.17385C10.5343 7.92775 10.3128 7.89904 10.1775 8.27639C10.0913 8.35022 9.92726 8.36662 9.91085 8.25588C9.93136 8.00158 9.82882 7.96877 9.62374 8.08772L9.42687 6.60295C9.5089 6.60295 9.59093 6.66447 9.66886 6.56604C9.58683 6.29943 9.40226 5.75803 9.29972 5.71701C9.2546 5.65959 9.21358 5.6965 9.14796 5.71291C9.04132 5.74572 8.94288 5.83596 8.97569 6.01643C9.09874 6.78752 9.18077 7.37404 9.30792 8.14924C9.32843 8.23537 9.2546 8.35432 9.15616 8.34201C8.9921 8.23127 8.95109 8.00568 8.66398 8.01389C8.4589 8.01389 8.22921 8.23947 8.2005 8.45275C8.16358 8.62502 8.15128 8.80959 8.2005 8.95725C8.34405 9.12951 8.51632 9.11311 8.66808 9.07619C8.79112 9.02287 8.89366 8.89982 8.93878 8.92854C8.96749 8.96545 8.94288 9.37561 8.35226 9.68732C7.99542 9.85139 7.70831 9.8842 7.55655 9.59299C7.46222 9.40842 7.56476 8.71525 7.32687 8.87522Z" fill="white"/>
<path id="Vector_6" fill-rule="evenodd" clip-rule="evenodd" d="M10.2671 7.06261C10.4025 7.01339 11.0587 6.2587 11.0587 6.2587L10.9603 6.17667C10.9234 6.14796 10.9275 6.11515 10.9603 6.08644C11.1244 5.988 11.071 5.78292 10.989 5.68448C10.9333 5.65733 10.8721 5.64357 10.8101 5.64428C10.7482 5.64499 10.6872 5.66016 10.6322 5.68858C10.5173 5.79933 10.4927 5.97569 10.583 6.08233C10.6691 6.12335 10.7552 6.21358 10.6978 6.2628C10.4271 6.54991 9.69291 7.0462 9.77905 7.06261C9.79545 7.08722 10.2507 7.08722 10.263 7.06261H10.2671ZM6.28862 9.72862C6.04252 10.1224 6.02202 10.7089 6.15737 10.8853C6.23119 10.9673 6.35014 11.0042 6.43627 10.9755C6.59213 10.9099 6.66186 10.5941 6.62494 10.4833C6.57162 10.4013 6.53061 10.389 6.47729 10.4546C6.37065 10.6761 6.32553 10.5243 6.31323 10.4013C6.30147 10.1929 6.31247 9.98384 6.34604 9.77784C6.37475 9.60558 6.34604 9.65479 6.28862 9.72862ZM16.8337 9.10108C16.5958 8.58429 16.2636 8.07569 16.1611 7.88292C15.8414 7.37763 15.5021 6.88507 15.1439 6.40636C14.8896 6.10284 15.5623 6.53351 15.0619 5.92647L14.6968 5.61886C14.6148 5.56144 14.4179 5.45479 14.3851 5.62706C14.3687 5.78292 14.3769 5.86495 14.4015 5.9921C14.422 6.07413 14.5451 6.21769 14.6066 6.29972C15.4475 7.41348 16.186 8.60092 16.8132 9.84757C16.9199 9.79425 16.8953 9.18722 16.8337 9.10108Z" fill="white"/>
<path id="Vector_7" fill-rule="evenodd" clip-rule="evenodd" d="M15.7881 10.8153C15.7389 10.8686 15.9029 11.0942 16.1162 11.0942C16.4689 11.0531 16.7807 10.8563 17.0678 10.3313C17.1844 10.1566 17.2589 9.95723 17.2852 9.74885C17.3199 8.75316 17.2401 7.75678 17.0473 6.77932C17.035 6.69729 17.0473 6.59885 17.0555 6.57424C17.0801 6.54553 17.158 6.57424 17.199 6.50451C17.2605 6.44299 17.035 5.9303 16.9119 5.73752C16.8709 5.64729 16.8504 5.58987 16.7766 5.74573C16.6875 5.9177 16.645 6.11004 16.6535 6.30354C16.8217 7.47248 16.875 8.49377 16.9816 9.66272C16.9939 9.77756 16.9775 9.94162 16.8996 10.0072C16.5901 10.3518 16.2113 10.6272 15.7881 10.8153ZM20.5664 10.8112C20.3121 10.9588 20.3121 11.127 20.5172 11.1311C20.8699 11.0901 21.2883 11.0614 21.5754 10.6266C21.6768 10.4218 21.7354 10.1985 21.7477 9.97033C21.7993 8.98998 21.7346 8.00695 21.5549 7.04182C21.5467 6.95979 21.5098 6.76701 21.5221 6.74241C21.5467 6.68498 21.6615 6.74651 21.7025 6.68088C21.76 6.61936 21.4031 6.15998 21.276 5.96311C21.235 5.87287 21.2186 5.81545 21.1406 5.97131C21.058 6.14487 21.0322 6.34005 21.0668 6.52912C21.2555 7.80061 21.3949 8.75217 21.4236 9.876C21.4072 9.98264 21.4031 10.0401 21.3539 10.1754C21.2432 10.3149 21.1201 10.4953 21.0053 10.5815C20.8904 10.6635 20.6443 10.7455 20.5664 10.8112Z" fill="white"/>
<path id="Vector_8" fill-rule="evenodd" clip-rule="evenodd" d="M20.7549 9.67518C20.7549 9.37576 20.759 9.12147 20.7508 8.89588C20.7481 8.70483 20.7062 8.51636 20.6277 8.34217C20.5539 8.17401 20.599 8.03865 20.5621 7.85818C20.5293 7.67772 20.5375 7.40701 20.4883 7.19783C20.4719 7.1158 20.4309 6.8492 20.4432 6.82049C20.4637 6.76307 20.5416 6.82049 20.5826 6.75486C20.64 6.69334 20.3775 6.01658 20.2463 5.82381C20.2012 5.73768 20.1109 5.76639 20.0084 5.90584C19.9059 6.00018 19.9428 6.20936 19.9838 6.41033C20.234 7.73514 20.4268 8.9369 20.3857 10.1961C20.3693 10.3027 20.7549 9.87615 20.7549 9.67518ZM18.8805 8.03455C18.7205 8.02635 18.3883 7.71873 18.2898 7.54236C18.2737 7.49926 18.2669 7.45325 18.2697 7.40732C18.2725 7.36139 18.285 7.31657 18.3062 7.27576C18.3678 7.23475 18.458 7.19373 18.5277 7.23475C18.5277 7.23475 18.5975 7.33318 18.5851 7.34549C18.6672 7.38651 18.7082 7.366 18.7164 7.32908C18.7205 7.26756 18.6918 7.23065 18.6918 7.16502C18.7287 6.97635 18.9379 6.94764 19.0199 7.06658C19.0773 7.14041 19.1019 7.29217 19.106 7.39471C19.106 7.44803 19.024 7.38651 18.9707 7.39471C18.9256 7.41112 18.9133 7.46854 18.9092 7.51776C18.901 7.65311 18.8846 7.87049 18.8805 8.03045V8.03455ZM15.9355 10.0033C15.9766 9.60135 15.9191 8.88358 15.915 8.64569C15.8931 8.03388 15.8425 7.42344 15.7633 6.81639C15.7141 6.47186 15.9027 6.8533 15.8781 6.65233C15.8166 6.3119 15.6279 6.07811 15.4023 5.77049C15.3326 5.66795 15.3326 5.64744 15.2219 5.7951C15.0988 6.0699 15.2055 6.26268 15.2383 6.48006C15.3982 7.18553 15.4926 7.83358 15.5377 8.47752C15.585 9.14645 15.5904 9.81768 15.5541 10.4873C15.6771 10.4914 15.8658 10.2945 15.9355 10.0033Z" fill="white"/>
<path id="Vector_9" fill-rule="evenodd" clip-rule="evenodd" d="M21.3013 9.35948C21.0183 8.8837 20.5958 8.37511 20.481 8.18233C20.1006 7.65121 19.7012 7.13408 19.2833 6.63194C18.9347 6.2628 19.4474 6.57042 19.2177 6.28331C19.0249 6.07413 18.9716 6.0044 18.8034 5.87726C18.7214 5.82394 18.6722 5.7214 18.6394 5.89776C18.6263 6.05053 18.6235 6.204 18.6312 6.35714C18.6312 6.42687 18.705 6.56222 18.7706 6.64425C19.6196 7.69015 20.5507 8.75655 21.2972 10.0978C21.4038 10.0444 21.3669 9.44151 21.2972 9.35948H21.3013Z" fill="white"/>
<path id="Vector_10" fill-rule="evenodd" clip-rule="evenodd" d="M8.5293 8.4857C8.50879 8.52261 8.46368 8.56773 8.48008 8.61285C8.50879 8.65386 8.53751 8.66617 8.58672 8.66617C8.63184 8.66617 8.69747 8.67847 8.70977 8.65386C8.73438 8.62515 8.75079 8.57183 8.73438 8.51851C8.68516 8.39546 8.55391 8.44468 8.5293 8.4857Z" fill="#165D31"/>
<path id="Vector_11" fill-rule="evenodd" clip-rule="evenodd" d="M18.027 15.3684C18.4043 15.3848 18.6504 15.3889 18.9826 15.4258L19.3764 15.3848C19.8111 15.3438 19.8275 16.0041 19.8275 16.0041C19.8275 16.3938 19.6758 16.4143 19.483 16.4553C19.3723 16.4717 19.3189 16.3897 19.2574 16.3076C19.1647 16.3374 19.0659 16.343 18.9703 16.324C18.8104 16.3158 18.6545 16.3158 18.4986 16.3035C18.3346 16.2912 18.2443 16.324 18.0762 16.3076C18.0434 16.3609 17.9941 16.4348 17.8957 16.4143C17.8137 16.402 17.7111 16.1682 17.7398 15.9836C17.8014 15.8524 17.7809 15.8975 17.7809 15.8401C16.2387 15.799 14.6842 15.7293 13.1748 15.7498C11.9936 15.7539 10.8287 15.8031 9.65977 15.8524C9.03633 15.8442 8.56055 15.7457 8.23242 15.2658C8.26523 15.2658 9.82383 15.352 10.2791 15.3233C11.1199 15.3151 11.891 15.2453 12.7482 15.2207C14.4381 15.2494 16.1156 15.2494 17.8055 15.3684C17.6414 15.2576 17.6414 14.9992 17.8875 14.9336C17.908 14.9172 17.9203 15.0608 17.9572 15.0567C18.1582 15.0443 18.068 15.3151 18.027 15.3684ZM11.2348 6.04962C10.9805 6.7797 11.3824 7.5836 11.6613 7.50568C11.8664 7.58771 11.9895 7.20216 12.0715 6.7838C12.133 6.66485 12.174 6.65255 12.2027 6.71407C12.1945 7.27189 12.2437 7.39903 12.3873 7.5672C12.7072 7.81329 12.9738 7.60001 12.9943 7.5795L13.2404 7.32931C13.2979 7.26778 13.3717 7.26778 13.4496 7.317C13.5275 7.38673 13.5152 7.50568 13.6793 7.58771C13.8187 7.64513 14.11 7.60411 14.1797 7.48517C14.2699 7.32521 14.2945 7.27189 14.3355 7.21446C14.4012 7.12833 14.5119 7.16525 14.5119 7.19396C14.4996 7.24317 14.434 7.28829 14.4791 7.37853C14.5611 7.43595 14.5775 7.39903 14.6227 7.38673C14.7867 7.3047 14.9098 6.95196 14.9098 6.95196C14.9139 6.82071 14.84 6.82892 14.7908 6.86173L14.6637 6.94786C14.5816 6.96017 14.4299 7.01349 14.352 6.89454C14.274 6.75509 14.274 6.55411 14.2166 6.41056C14.2166 6.40235 14.11 6.18497 14.2084 6.17267C14.2576 6.18087 14.3602 6.20958 14.3766 6.12345C14.4258 6.03732 14.2699 5.79532 14.1592 5.67228C14.0648 5.56974 13.9336 5.55743 13.8064 5.66407C13.7162 5.7461 13.7285 5.83634 13.7121 5.92247C13.6966 5.9842 13.6959 6.04873 13.7101 6.11077C13.7244 6.17281 13.7532 6.23057 13.7941 6.27931C13.8844 6.45157 14.0443 6.67716 13.991 6.99708C13.991 6.99708 13.8967 7.14474 13.7326 7.12423C13.6629 7.11193 13.5521 7.08321 13.4947 6.64025C13.4496 6.31212 13.5029 5.84454 13.3635 5.62716C13.3102 5.49181 13.2732 5.36466 13.1502 5.59025C13.1174 5.68048 12.9738 5.81583 13.0764 6.09064C13.1734 6.33827 13.2017 6.60752 13.1584 6.86993C13.0969 6.96017 13.0846 6.98888 13.0066 7.07501C12.9 7.19806 12.7811 7.16525 12.6908 7.12013C12.6088 7.06681 12.5432 7.0381 12.5021 6.85353C12.5104 6.56642 12.5268 6.09474 12.4734 5.9963C12.3955 5.84044 12.2684 5.89786 12.215 5.94708C11.9711 6.21813 11.8077 6.55198 11.7434 6.91095C11.6695 7.14884 11.5916 7.07911 11.5383 6.98478C11.407 6.86173 11.3947 5.88966 11.2348 6.04962Z" fill="white"/>
<path id="Vector_12" fill-rule="evenodd" clip-rule="evenodd" d="M12.0066 7.64089C12.1255 7.55886 12.0722 7.50144 12.2445 7.67371C12.4668 8.06713 12.5959 8.50633 12.6218 8.95749C12.6136 9.06414 12.6874 9.12976 12.7244 9.10515C12.7408 8.85906 13.3437 8.51453 13.8974 8.46531C13.9794 8.4448 13.9384 8.28484 13.9507 8.20281C13.9179 7.89519 14.123 7.61628 14.4101 7.59578C14.8039 7.6532 14.9351 7.86238 14.9433 8.1782C14.8982 8.79343 14.2583 8.89597 13.9015 8.94519C13.8482 8.9657 13.8236 8.99031 13.9015 9.01902L15.4027 9.02722L15.4806 9.06824C15.4888 9.10925 15.456 9.07644 15.3986 9.17488C15.316 9.31995 15.2643 9.48055 15.2468 9.64656C14.7998 9.79421 14.3363 9.85164 13.8687 9.91316C13.7046 9.99519 13.6226 10.1059 13.6554 10.229C13.7128 10.3643 14.0738 10.5038 14.0738 10.5079C14.1435 10.5489 14.2214 10.6514 14.0533 10.8606C13.3232 10.8278 12.7531 10.5161 12.5562 10.0772C12.4988 10.0321 12.4332 10.0772 12.3921 10.1346C12.105 10.5038 11.8261 10.8319 11.338 11.0124C11.0509 11.0862 10.7515 10.9673 10.6121 10.7786C10.5177 10.6678 10.5218 10.5489 10.489 10.5243C10.3291 10.594 8.97554 11.1682 9.1478 10.8975C9.47593 10.5489 10.0501 10.2864 10.5505 9.94187C10.5874 9.82292 10.6531 9.42917 10.8499 9.30203C10.8623 9.30203 10.8212 9.53171 10.8253 9.63015C10.8253 9.71218 10.8171 9.74089 10.8335 9.72039C10.8705 9.69988 11.4775 9.21999 11.5308 9.07234C11.5882 8.99031 11.5431 8.77703 11.5431 8.76882C11.4283 8.47351 11.2683 8.4489 11.2109 8.30124C11.1576 8.10847 11.1822 7.88699 11.2929 7.82136C11.3914 7.73523 11.5062 7.74343 11.6169 7.84187C11.74 7.95261 11.8466 8.16999 11.8794 8.32996C11.8589 8.39148 11.7154 8.28894 11.6744 8.31765C11.7533 8.40837 11.8058 8.51904 11.8261 8.63757C11.9082 8.9739 11.8835 9.10515 11.8015 9.32253C11.5308 9.89265 11.1863 10.0608 10.8828 10.2741C10.8746 10.2741 10.8705 10.4177 10.9812 10.4956C11.0222 10.5366 11.1822 10.5571 11.3667 10.4956C11.7611 10.2766 12.0799 9.94345 12.2814 9.53992C12.3162 9.23286 12.2826 8.92189 12.183 8.62937C12.064 8.35456 11.9246 7.96492 11.9246 7.95671C11.9205 7.78445 11.9328 7.72703 12.0066 7.64089ZM8.07729 6.05769C8.24956 6.13972 8.57768 6.10281 8.56128 5.8239L8.55308 5.69675C8.52026 5.61472 8.42183 5.63523 8.40132 5.71726C8.39311 5.74597 8.41362 5.79109 8.38901 5.80339C8.37261 5.8198 8.31929 5.8116 8.31929 5.73367C8.31929 5.70906 8.30288 5.68445 8.29058 5.66804C8.28237 5.65984 8.27417 5.65984 8.25366 5.65984C8.22905 5.65984 8.22905 5.66394 8.21675 5.68445C8.21265 5.70496 8.20444 5.72546 8.20444 5.75007C8.20444 5.77878 8.18804 5.78699 8.17163 5.79109C8.14702 5.79109 8.15112 5.79109 8.13061 5.78289C8.12241 5.77058 8.11011 5.76648 8.11011 5.74187L8.0978 5.67624C8.0896 5.66394 8.07319 5.65574 8.05679 5.65164C7.96245 5.65164 7.95425 5.76238 7.96245 5.80339C7.95425 5.8116 7.95015 6.00437 8.07729 6.05769Z" fill="white"/>
<path id="Vector_13" fill-rule="evenodd" clip-rule="evenodd" d="M13.1419 8.1986C13.3141 8.28063 13.7284 8.23551 13.6258 7.96891L13.6176 7.83766C13.5807 7.75563 13.4864 7.77614 13.4659 7.86227C13.4577 7.88688 13.4782 7.932 13.4495 7.9443C13.4372 7.96071 13.3797 7.9525 13.3838 7.87868C13.3838 7.85407 13.3674 7.82536 13.3551 7.80895C13.3428 7.80485 13.3387 7.80075 13.3141 7.80075C13.2936 7.80075 13.2936 7.80895 13.2813 7.82946C13.2731 7.84996 13.269 7.87047 13.269 7.89508C13.2649 7.91969 13.2526 7.92789 13.2321 7.9361C13.2116 7.9361 13.2157 7.9361 13.1993 7.92379C13.187 7.91149 13.1747 7.90739 13.1747 7.88688L13.1624 7.82125C13.1542 7.80895 13.1378 7.80075 13.1214 7.79664C13.027 7.79664 13.0188 7.90329 13.0229 7.9443C13.0188 7.9525 13.0147 8.14938 13.146 8.1986H13.1419ZM16.095 7.31266C16.2672 7.39469 16.5913 7.35778 16.579 7.08297L16.5708 6.95172C16.5339 6.86969 16.4395 6.8902 16.419 6.97223C16.4108 7.00094 16.4313 7.04606 16.4026 7.06246C16.3903 7.07477 16.3329 7.06657 16.337 6.98864C16.337 6.96403 16.3206 6.93942 16.3083 6.92301C16.296 6.91481 16.2919 6.91481 16.2672 6.91481C16.2467 6.91481 16.2467 6.92301 16.2344 6.94352L16.2221 7.00504C16.218 7.03375 16.2057 7.04606 16.1852 7.04606C16.1647 7.04606 16.1688 7.04606 16.1524 7.03786C16.1401 7.02555 16.1278 7.02145 16.1278 7.00094C16.1278 6.98043 16.1237 6.94762 16.1155 6.93122C16.1073 6.91891 16.0909 6.91481 16.0745 6.91071C15.9801 6.91071 15.9719 7.01735 15.976 7.05836C15.9719 7.06657 15.9678 7.25934 16.0991 7.31266H16.095ZM17.6249 9.53981C17.3255 9.88024 17.4567 10.4422 17.5264 10.5652C17.6249 10.7621 17.7028 10.8892 17.8956 10.9877C18.0719 11.1148 18.2114 11.0369 18.2852 10.9466C18.4616 10.7621 18.4657 10.2904 18.5477 10.2002C18.6051 10.0279 18.7528 10.0566 18.8225 10.1345C18.8878 10.2271 18.9752 10.3019 19.0768 10.3519C19.2409 10.4955 19.4378 10.5242 19.6346 10.3929C19.7659 10.315 19.852 10.2207 19.9299 10.0279C20.012 9.79821 19.971 8.7318 19.9505 8.10016L19.7782 7.21832C19.7782 7.21012 19.7577 6.79997 19.7372 6.70563C19.7372 6.66461 19.7249 6.65231 19.7659 6.65641C19.811 6.69743 19.8151 6.69743 19.8479 6.70973C19.8889 6.71793 19.9299 6.64 19.9012 6.57438L19.4911 5.81149C19.4583 5.77868 19.4131 5.74586 19.3598 5.81969C19.3284 5.84817 19.3033 5.88301 19.2864 5.9219C19.2694 5.96079 19.2609 6.00285 19.2614 6.04528C19.2737 6.22575 19.3024 6.41032 19.3147 6.59079L19.4788 7.51774C19.5321 8.17399 19.5444 8.71539 19.5977 9.37575C19.5895 9.65465 19.5034 9.89664 19.4214 9.93356C19.4214 9.93356 19.2983 10.0033 19.2163 9.92536C19.1547 9.90075 18.9128 9.5193 18.9128 9.5193C18.7897 9.40856 18.7077 9.43727 18.6215 9.5193C18.3755 9.75719 18.2688 10.192 18.1006 10.4955C18.0596 10.5652 17.9366 10.6185 17.8053 10.4914C17.469 10.0279 17.6659 9.37164 17.6249 9.53981ZM16.1729 5.69664C16.3288 5.75817 16.4354 6.07399 16.4026 6.22985C16.3698 6.41442 16.2878 6.6195 16.2303 6.59489C16.1647 6.57028 16.2713 6.40622 16.2098 6.23395C16.177 6.11911 15.9637 5.91403 15.9883 5.85661C15.9473 5.72946 16.0786 5.67204 16.1729 5.69254V5.69664Z" fill="white"/>
<path id="Vector_14" fill-rule="evenodd" clip-rule="evenodd" d="M18.1253 9.72872C18.154 9.35137 18.1007 9.12169 18.0925 8.9002C18.0843 8.67872 17.8423 6.98887 17.7931 6.82481C17.7315 6.50489 18.0268 6.7838 17.994 6.59512C17.8915 6.36544 17.6413 6.02501 17.5634 5.82403C17.5141 5.742 17.5347 5.65997 17.428 5.80352C17.3362 6.05522 17.3039 6.32476 17.3337 6.59102C17.588 7.91583 17.8464 9.01505 17.8054 10.2742C17.9284 10.2742 18.0638 9.99942 18.1253 9.72872ZM20.7667 6.23009C20.9102 6.29981 20.9923 6.69356 20.9759 6.8043C20.9472 7.00938 20.8733 7.23087 20.82 7.20216C20.7585 7.17755 20.8323 6.89864 20.8036 6.81251C20.7708 6.68946 20.578 6.46798 20.5985 6.40235C20.5575 6.2629 20.6806 6.20548 20.7667 6.23009ZM10.279 9.01505C10.4143 9.06837 10.4964 9.35548 10.4841 9.43751C10.4513 9.58927 10.3815 9.75333 10.3282 9.72872C10.2749 9.71231 10.3405 9.50723 10.3159 9.44161C10.3036 9.28985 10.1149 9.20782 10.119 9.14219C10.0862 9.01915 10.2011 8.99864 10.2831 9.01505H10.279Z" fill="white"/>
<path id="Vector_15" fill-rule="evenodd" clip-rule="evenodd" d="M13.5443 9.4498C13.7166 9.45801 13.8027 9.59746 13.6427 9.65488C13.4787 9.7082 13.3269 9.75332 13.3228 9.98301C13.3844 10.3111 13.2408 10.1963 13.1588 10.1553C13.0603 10.0814 12.7814 9.90918 12.7404 9.54004C12.7363 9.45391 12.806 9.37598 12.9168 9.37598C13.0808 9.42109 13.3269 9.4252 13.5443 9.4498Z" fill="#165D31"/>
<path id="Vector_16" fill-rule="evenodd" clip-rule="evenodd" d="M6.6747 5.60247C6.87158 5.65989 6.88388 5.95521 6.87158 6.04134C6.84286 6.1972 6.77314 6.36536 6.72392 6.34485C6.6665 6.32435 6.72392 6.11106 6.69521 6.04544C6.6665 5.95521 6.49833 5.78294 6.51474 5.73372C6.47783 5.63118 6.59677 5.58196 6.6747 5.60247ZM10.6081 6.9806C10.4522 7.06263 10.3948 7.30872 10.4892 7.45638C10.5794 7.57942 10.7188 7.53431 10.7352 7.53431C10.887 7.55071 10.9772 7.2513 10.9772 7.2513C10.9772 7.2513 10.9813 7.16927 10.805 7.32923C10.727 7.34153 10.7229 7.31282 10.7024 7.27181C10.6837 7.19372 10.6909 7.11164 10.7229 7.03802C10.7517 6.96419 10.6942 6.93138 10.6081 6.9806ZM11.7565 5.48763C11.6745 5.54095 11.5227 5.70091 11.5186 5.88138C11.5145 5.98392 11.494 5.98392 11.5597 6.04544C11.613 6.11927 11.6581 6.11517 11.7565 6.06185C11.7811 6.04641 11.8021 6.02604 11.8184 6.00203C11.8346 5.97802 11.8457 5.9509 11.8509 5.92239C11.8755 5.80755 11.7278 5.97981 11.7114 5.84856C11.6786 5.72552 11.7729 5.6763 11.8632 5.56146C11.8632 5.47942 11.8632 5.4261 11.7524 5.48763H11.7565ZM12.6753 5.65169C12.6391 5.80104 12.6172 5.95348 12.6097 6.10696C12.5851 6.22181 12.7327 6.27103 12.7942 6.12337C12.8927 5.85677 12.8927 5.74192 12.9009 5.63118C12.8722 5.45481 12.7532 5.45892 12.6753 5.65169ZM18.4995 8.61712C18.5159 8.59661 19.3198 8.02649 19.3198 8.02649C19.4018 7.99778 19.3813 8.32181 19.3444 8.31771C19.0951 8.55798 18.8084 8.75608 18.4954 8.90423C18.4544 8.93294 18.4175 8.68685 18.4954 8.61712H18.4995ZM19.2255 8.60892C19.369 8.67864 19.4265 9.0929 19.4101 9.20364C19.4101 9.42513 19.2747 9.59739 19.2173 9.57278C19.1599 9.54407 19.2255 9.29798 19.1968 9.21185C19.164 9.0888 19.045 8.86321 19.0655 8.79759C19.0245 8.65814 19.1393 8.58431 19.2296 8.60892H19.2255ZM14.4677 10.389C14.5342 10.3113 14.6116 10.2437 14.6974 10.188C14.7794 10.147 14.8532 10.2208 14.8491 10.2167C14.8614 10.2988 14.7999 10.3685 14.8204 10.4751C14.8368 10.5161 14.8491 10.5654 14.927 10.549C15.0542 10.4464 15.1731 10.4382 15.2962 10.4341C15.3987 10.4382 15.4028 10.6064 15.3372 10.6064C15.1034 10.6556 15.0009 10.7212 14.8327 10.7827C14.7507 10.832 14.6851 10.7704 14.6851 10.7663C14.6851 10.7622 14.6399 10.7212 14.6686 10.6146C14.6768 10.5325 14.644 10.4833 14.5702 10.4915C14.521 10.5243 14.4718 10.5408 14.4472 10.4792C14.4349 10.4382 14.4308 10.4136 14.4677 10.389ZM20.0704 10.6105C20.1032 10.6515 20.1278 10.6925 20.0663 10.7663L19.9145 10.8976C19.8899 10.9386 19.8735 11.0124 19.9556 11.0329C20.1032 11.074 20.4477 10.8484 20.4477 10.8443C20.5052 10.8033 20.4888 10.7212 20.4806 10.7212C20.4477 10.6843 20.3739 10.7089 20.3247 10.7007C20.3001 10.7007 20.2222 10.6925 20.2591 10.6187C20.2866 10.5824 20.3087 10.5424 20.3247 10.4997C20.3452 10.4505 20.3247 10.4177 20.2427 10.389C20.1565 10.3726 20.1196 10.3808 20.0253 10.389C19.9761 10.3972 19.9597 10.4218 19.9474 10.4833C19.9515 10.5777 20.0089 10.5736 20.0704 10.6064V10.6105Z" fill="white"/>
<path id="Vector_17" fill-rule="evenodd" clip-rule="evenodd" d="M14.497 8.28052C14.4765 8.32153 14.4027 8.32153 14.3329 8.28052C14.2632 8.2395 14.2222 8.17388 14.2468 8.13696C14.2714 8.10005 14.3411 8.10005 14.4109 8.13696C14.4806 8.17388 14.5175 8.2436 14.497 8.28052ZM10.8466 6.08208C10.8056 6.09439 10.7482 6.05747 10.7236 6.00005C10.699 5.94263 10.7113 5.89341 10.7523 5.8811C10.7933 5.8688 10.8466 5.90981 10.8753 5.96313C10.904 6.01646 10.8876 6.07388 10.8425 6.08618L10.8466 6.08208ZM18.0695 15.8807C18.455 15.8971 18.8159 15.8807 19.1974 15.9012C19.2671 15.9627 19.2179 16.1063 19.1728 16.0981L18.8529 16.0858C18.8488 15.9627 18.537 15.9833 18.5452 16.0899C18.3771 16.1104 18.2253 16.0858 18.0531 16.0776C18.0038 16.0161 18.012 15.9053 18.0695 15.8807Z" fill="#165D31"/>
</g>
</g>
</g>
</g>
<defs>
<clipPath id="clip0_2078_61942">
<rect width="28" height="21" fill="white" transform="translate(0 0.5)"/>
</clipPath>
</defs>
</svg>
